<svg width="438" height="85" viewBox="0 0 438 85" fill="none" xmlns="http://www.w3.org/2000/svg">
<path d="M164.173 75.5363C172.527 69.0036 177.881 58.8833 177.881 47.4778C177.881 36.0723 172.527 25.8984 164.173 19.4192C158.123 14.7071 150.519 11.8691 142.273 11.8691C122.621 11.8691 106.664 27.8261 106.664 47.4778C106.664 67.1295 122.621 83.0864 142.273 83.0864C150.519 83.0864 158.123 80.302 164.173 75.5363Z" fill="white"/>
<path d="M204.119 47.4791L202.78 42.3922H193.998L192.606 47.4791H184.574L193.409 20.2773H203.155L212.097 47.4791H204.119ZM201.227 36.3949L200.049 31.9506C199.782 30.9867 199.46 29.7016 199.032 28.0952C198.657 26.5423 198.389 25.4178 198.282 24.7217C198.175 25.3643 197.961 26.3817 197.64 27.8274C197.318 29.2732 196.569 32.1112 195.444 36.3414H201.227V36.3949Z" fill="white"/>
<path d="M220.933 47.8533C217.506 47.8533 214.882 46.943 213.115 45.0689C211.348 43.1947 210.438 40.5709 210.438 37.0904C210.438 33.6098 211.401 30.9325 213.329 29.0048C215.257 27.0771 217.988 26.1133 221.468 26.1133C223.878 26.1133 226.18 26.6487 228.322 27.7197L226.18 33.0744C225.324 32.6995 224.52 32.3783 223.771 32.1641C223.021 31.9499 222.271 31.8428 221.468 31.8428C220.29 31.8428 219.38 32.3247 218.737 33.235C218.095 34.1453 217.773 35.4304 217.773 37.0904C217.773 40.4638 219.005 42.1238 221.468 42.1238C223.61 42.1238 225.645 41.4812 227.572 40.2496V46.0327C225.805 47.2107 223.556 47.8533 220.933 47.8533Z" fill="white"/>
<path d="M238.71 47.8525C235.23 47.8525 232.499 46.9422 230.571 45.068C228.644 43.1939 227.68 40.5701 227.68 37.1431C227.68 33.609 228.59 30.8781 230.357 29.004C232.124 27.1299 234.694 26.166 238.014 26.166C241.173 26.166 243.637 26.9692 245.35 28.6292C247.064 30.2891 247.92 32.6452 247.92 35.7509V38.9637H234.962C235.016 40.1417 235.444 41.052 236.247 41.7481C237.05 42.3907 238.175 42.7655 239.567 42.7655C240.852 42.7655 242.03 42.6584 243.101 42.3907C244.172 42.1765 245.35 41.7481 246.582 41.1591V46.3532C245.457 46.9422 244.279 47.317 243.048 47.5312C241.816 47.7454 240.37 47.8525 238.71 47.8525ZM238.282 31.0388C237.425 31.0388 236.729 31.3065 236.14 31.842C235.551 32.3774 235.23 33.2342 235.123 34.3587H241.334C241.334 33.3413 241.013 32.5381 240.477 31.9491C239.942 31.3601 239.192 31.0388 238.282 31.0388Z" fill="white"/>
<path d="M256.057 47.4781H248.828V18.6699H256.057V47.4781Z" fill="white"/>
<path d="M267.949 47.8525C264.468 47.8525 261.737 46.9422 259.81 45.068C257.882 43.1939 256.918 40.5701 256.918 37.1431C256.918 33.609 257.828 30.8781 259.595 29.004C261.362 27.1299 263.933 26.166 267.253 26.166C270.412 26.166 272.875 26.9692 274.588 28.6292C276.302 30.2891 277.159 32.6452 277.159 35.7509V38.9637H264.2C264.254 40.1417 264.682 41.052 265.485 41.7481C266.289 42.3907 267.413 42.7655 268.805 42.7655C270.09 42.7655 271.269 42.6584 272.339 42.3907C273.41 42.1765 274.588 41.7481 275.82 41.1591V46.3532C274.696 46.9422 273.517 47.317 272.286 47.5312C271.108 47.7454 269.662 47.8525 267.949 47.8525ZM267.52 31.0388C266.664 31.0388 265.967 31.3065 265.378 31.842C264.789 32.3774 264.468 33.2342 264.361 34.3587H270.572C270.572 33.3413 270.251 32.5381 269.716 31.9491C269.18 31.3601 268.484 31.0388 267.52 31.0388Z" fill="white"/>
<path d="M290.705 26.1133C291.347 26.1133 291.936 26.1668 292.525 26.2739L292.954 26.3275L292.311 33.1815C291.722 33.0208 290.919 32.9673 289.848 32.9673C288.241 32.9673 287.117 33.3421 286.421 34.0382C285.725 34.7343 285.35 35.8053 285.35 37.1439V47.4785H278.121V26.4881H283.529L284.654 29.8616H285.029C285.618 28.7371 286.474 27.8268 287.545 27.1842C288.509 26.4881 289.634 26.1133 290.705 26.1133Z" fill="white"/>
<path d="M306.286 47.4777L304.893 44.6932H304.733C303.769 45.9248 302.752 46.728 301.734 47.1564C300.717 47.5847 299.432 47.7989 297.825 47.7989C295.844 47.7989 294.291 47.2099 293.167 46.0319C292.042 44.8539 291.453 43.1939 291.453 41.052C291.453 38.8031 292.256 37.1431 293.809 36.0722C295.362 35.0012 297.611 34.3587 300.556 34.2516L304.037 34.1445V33.8232C304.037 32.1097 303.18 31.253 301.466 31.253C299.914 31.253 297.986 31.7884 295.63 32.8058L293.541 28.0402C296.005 26.755 299.057 26.166 302.805 26.166C305.482 26.166 307.571 26.8086 309.07 28.1472C310.569 29.4859 311.265 31.3601 311.265 33.7161V47.4777H306.286ZM300.931 42.712C301.788 42.712 302.537 42.4443 303.18 41.8552C303.822 41.3198 304.09 40.5701 304.09 39.7134V38.107L302.43 38.1605C300.074 38.2676 298.843 39.1244 298.843 40.7843C298.896 42.0694 299.539 42.712 300.931 42.712Z" fill="white"/>
<path d="M322.566 47.8533C319.139 47.8533 316.515 46.943 314.748 45.0689C312.981 43.1947 312.07 40.5709 312.07 37.0904C312.07 33.6098 313.034 30.9325 314.962 29.0048C316.89 27.0771 319.62 26.1133 323.101 26.1133C325.511 26.1133 327.813 26.6487 329.955 27.7197L327.813 33.0744C326.956 32.6995 326.153 32.3783 325.403 32.1641C324.654 31.9499 323.904 31.8428 323.101 31.8428C321.923 31.8428 321.013 32.3247 320.37 33.235C319.728 34.1453 319.406 35.4304 319.406 37.0904C319.406 40.4638 320.638 42.1238 323.101 42.1238C325.243 42.1238 327.278 41.4812 329.205 40.2496V46.0327C327.438 47.2107 325.189 47.8533 322.566 47.8533ZM326.207 52.137C326.207 53.4757 325.725 54.5466 324.814 55.3498C323.904 56.1531 322.673 56.5814 321.12 56.5814C319.46 56.5814 318.121 56.4208 317.157 56.046V52.2441C318.175 52.5654 319.085 52.7261 319.888 52.7261C320.531 52.7261 320.852 52.4583 320.852 51.8693C320.852 51.4409 320.584 51.1196 320.102 50.7984C319.62 50.4771 318.924 50.2094 318.121 50.0487L319.46 47.4785H323.208L323.047 48.0139C324.225 48.4959 325.029 49.0849 325.511 49.7274C325.993 50.37 326.207 51.1732 326.207 52.137Z" fill="white"/>
<path d="M343.93 47.4788L342.538 44.6943H342.377C341.413 45.9259 340.396 46.7291 339.379 47.1575C338.361 47.5858 337.076 47.8 335.47 47.8C333.489 47.8 331.936 47.211 330.811 46.033C329.687 44.855 329.098 43.195 329.098 41.0531C329.098 38.8042 329.901 37.1442 331.454 36.0733C333.007 35.0023 335.256 34.3598 338.201 34.2527L341.681 34.1456V33.8243C341.681 32.1108 340.824 31.2541 339.111 31.2541C337.558 31.2541 335.63 31.7895 333.274 32.8069L331.186 28.0413C333.649 26.7561 336.701 26.1671 340.45 26.1671C343.127 26.1671 345.215 26.8097 346.715 28.1484C348.214 29.487 348.91 31.3612 348.91 33.7172V47.4788H343.93ZM343.288 24.5607C342.752 24.5607 342.163 24.4536 341.628 24.293C341.092 24.1323 340.503 23.9182 339.968 23.704C339.432 23.4898 338.897 23.2756 338.361 23.1149C337.826 22.9543 337.344 22.8472 336.916 22.8472C336.273 22.8472 335.791 23.4362 335.577 24.6678H332.257C332.418 22.5259 332.846 20.9195 333.596 19.9021C334.345 18.8847 335.47 18.3493 336.916 18.3493C337.397 18.3493 337.879 18.4564 338.415 18.617C338.95 18.7777 339.486 18.9918 340.021 19.206C340.557 19.4202 341.092 19.6344 341.628 19.795C342.163 19.9557 342.645 20.0628 343.127 20.0628C343.502 20.0628 343.77 19.9021 343.984 19.5809C344.198 19.2596 344.359 18.8312 344.466 18.2422H347.839C347.678 20.277 347.25 21.8834 346.447 22.9543C345.697 23.9717 344.626 24.5607 343.288 24.5607ZM338.575 42.7131C339.432 42.7131 340.182 42.4454 340.824 41.8563C341.467 41.3209 341.735 40.5712 341.735 39.7145V38.1081L340.075 38.1616C337.719 38.2687 336.487 39.1255 336.487 40.7854C336.487 42.0705 337.183 42.7131 338.575 42.7131Z" fill="white"/>
<path d="M198.337 63.972H210.01V78.5368C206.851 79.6077 203.37 80.1432 199.568 80.1432C195.392 80.1432 192.179 78.9116 189.876 76.502C187.574 74.0924 186.449 70.6118 186.449 66.1675C186.449 61.7766 187.681 58.4032 190.197 55.94C192.714 53.5304 196.195 52.2988 200.693 52.2988C202.406 52.2988 204.013 52.4595 205.512 52.7807C207.011 53.102 208.35 53.5304 209.474 54.0123L207.172 59.7418C205.244 58.778 203.102 58.2961 200.746 58.2961C198.604 58.2961 196.944 58.9922 195.82 60.3844C194.642 61.7766 194.053 63.7578 194.053 66.3281C194.053 68.8448 194.588 70.7725 195.659 72.1112C196.73 73.4498 198.23 74.0924 200.211 74.0924C201.282 74.0924 202.299 73.9853 203.209 73.7711V69.5409H198.39V63.972H198.337Z" fill="white"/>
<path d="M219.166 79.8219H211.938V51.0137H219.166V79.8219Z" fill="white"/>
<path d="M260.232 58.5102C262.535 58.5102 264.302 59.4741 265.641 61.4018C266.979 63.3294 267.675 65.9532 267.675 69.3267C267.675 72.7537 266.979 75.3775 265.641 77.3587C264.302 79.2864 262.428 80.2502 260.018 80.2502C259.215 80.2502 258.572 80.1431 257.93 79.9825C257.341 79.8219 256.805 79.6077 256.324 79.2864C255.842 78.9651 255.306 78.4832 254.664 77.7871H254.235L253.111 79.8219H247.488V51.0137H254.717V57.5464C254.717 58.3496 254.61 59.6883 254.449 61.5624H254.717C255.413 60.4915 256.216 59.6883 257.127 59.2063C258.037 58.7244 259.108 58.5102 260.232 58.5102ZM257.609 64.1862C256.591 64.1862 255.842 64.561 255.413 65.2571C254.931 65.9532 254.717 67.0777 254.717 68.577V69.5944C254.717 71.3079 254.931 72.5395 255.413 73.2892C255.895 74.0388 256.645 74.4136 257.716 74.4136C258.572 74.4136 259.215 73.9853 259.697 73.1285C260.179 72.2718 260.393 70.9866 260.393 69.2731C260.34 65.8461 259.429 64.1862 257.609 64.1862Z" fill="white"/>
<path d="M282.297 79.8214L280.905 77.037H280.744C279.781 78.2685 278.763 79.0718 277.746 79.5001C276.728 79.9285 275.443 80.1427 273.837 80.1427C271.856 80.1427 270.303 79.5537 269.178 78.3756C268.054 77.1976 267.465 75.5377 267.465 73.3958C267.465 71.1468 268.268 69.4869 269.821 68.4159C271.374 67.345 273.623 66.7024 276.568 66.5953L280.048 66.4882V66.167C280.048 64.4535 279.192 63.5967 277.478 63.5967C275.925 63.5967 273.998 64.1322 271.641 65.1496L269.553 60.3839C272.016 59.0988 275.069 58.5098 278.817 58.5098C281.494 58.5098 283.582 59.1523 285.082 60.491C286.581 61.8297 287.277 63.7038 287.277 66.0599V79.8214H282.297ZM276.943 75.1093C277.799 75.1093 278.549 74.8416 279.192 74.2525C279.834 73.7171 280.102 72.9674 280.102 72.1107V70.5043L278.442 70.5578C276.086 70.6649 274.854 71.5216 274.854 73.1816C274.854 74.4667 275.55 75.1093 276.943 75.1093Z" fill="white"/>
<path d="M296.272 79.8219H289.043V51.0137H296.272V79.8219Z" fill="white"/>
<path d="M321.439 65.7376C321.439 70.2356 320.208 73.7161 317.691 76.1793C315.174 78.6424 311.694 79.8204 307.196 79.8204H298.414V52.7793H307.785C312.122 52.7793 315.495 53.9038 317.852 56.0992C320.261 58.2946 321.439 61.5074 321.439 65.7376ZM313.836 66.0054C313.836 63.5422 313.354 61.6681 312.39 60.49C311.426 59.312 309.927 58.6694 307.892 58.6694H305.75V73.8232H307.356C309.552 73.8232 311.212 73.1806 312.229 71.8955C313.354 70.6104 313.836 68.6292 313.836 66.0054Z" fill="white"/>
<path d="M332.792 80.1962C329.312 80.1962 326.581 79.2859 324.653 77.4118C322.726 75.5377 321.762 72.9139 321.762 69.4869C321.762 65.9528 322.672 63.2219 324.439 61.3477C326.206 59.4736 328.776 58.5098 332.096 58.5098C335.256 58.5098 337.719 59.313 339.432 60.9729C341.146 62.6329 342.002 64.9889 342.002 68.0946V71.3075H329.044C329.098 72.4855 329.526 73.3958 330.329 74.0919C331.132 74.7345 332.257 75.1093 333.649 75.1093C334.934 75.1093 336.112 75.0022 337.183 74.7345C338.254 74.5203 339.432 74.0919 340.664 73.5029V78.6969C339.539 79.2859 338.361 79.6608 337.13 79.875C335.898 80.0891 334.452 80.1962 332.792 80.1962ZM332.364 63.4361C331.507 63.4361 330.811 63.7038 330.222 64.2393C329.633 64.7747 329.312 65.6315 329.205 66.756H335.416C335.416 65.7386 335.095 64.9354 334.559 64.3464C334.024 63.7038 333.274 63.4361 332.364 63.4361Z" fill="white"/>
<path d="M348.373 79.8204L340.395 58.8301H347.945L351.479 71.2529C351.479 71.3065 351.532 71.4136 351.532 71.5742C351.586 71.7349 351.586 71.8955 351.639 72.1097C351.693 72.3239 351.693 72.5381 351.746 72.7523C351.8 72.9664 351.8 73.1806 351.8 73.3948H351.907C351.907 72.7523 352.014 72.0561 352.228 71.3065L355.923 58.8836H363.473L355.548 79.8204H348.373Z" fill="white"/>
<path d="M241.71 79.3392C244.923 76.8225 246.957 72.9672 246.957 68.5763C246.957 64.1855 244.923 60.3301 241.71 57.8134C239.407 55.9928 236.462 54.9219 233.303 54.9219C225.753 54.9219 219.648 61.0262 219.648 68.5763C219.648 76.1264 225.753 82.2308 233.303 82.2308C236.462 82.2308 239.407 81.1063 241.71 79.3392Z" fill="#21D8D8"/>
<path d="M371.186 46.9427C374.399 44.426 376.434 40.5707 376.434 36.1798C376.434 31.789 374.399 27.9336 371.186 25.4169C368.884 23.5963 365.939 22.5254 362.779 22.5254C355.229 22.5254 349.125 28.6297 349.125 36.1798C349.125 43.7299 355.229 49.8343 362.779 49.8343C365.939 49.8343 368.83 48.7633 371.186 46.9427Z" fill="#21D8D8"/>
<path d="M383.986 44.3728L375.633 22.2044C372.795 14.6008 381.202 7.69323 388.056 12.0305L433.517 40.4103C438.872 43.7302 438.818 51.4945 433.463 54.8144L387.949 82.9265C381.041 87.1567 372.688 80.3027 375.526 72.6991L383.933 50.3165C384.736 48.4424 384.736 46.3005 383.986 44.3728Z" fill="#21D8D8"/>
<path d="M71.1637 45.069V1C61.3111 1 52.6901 6.19404 47.8709 14.0119C44.069 12.6197 39.9459 11.8165 35.6086 11.8165C15.957 11.8165 0 27.7734 0 47.4786C0 67.1303 15.957 83.0873 35.6086 83.0873C43.8549 83.0873 51.4585 80.2493 57.5093 75.5372C65.8626 69.0045 71.2173 58.8841 71.2173 47.4786C71.2708 46.6754 71.2173 45.8722 71.1637 45.069Z" fill="white"/>
<path d="M88.6724 28.416C81.1758 28.416 75.125 34.4668 75.125 41.9634V83.0338C90.2252 83.0338 102.434 70.7716 102.434 55.7249V42.1776C102.434 34.6274 96.276 28.416 88.6724 28.416Z" fill="white"/>
<path d="M88.7794 28.3089C96.3206 28.3089 102.434 22.1956 102.434 14.6544C102.434 7.1133 96.3206 1 88.7794 1C81.2383 1 75.125 7.1133 75.125 14.6544C75.125 22.1956 81.2383 28.3089 88.7794 28.3089Z" fill="white" stroke="white" stroke-miterlimit="10"/>
</svg>
